<svg width="155" height="116" viewBox="0 0 155 116" fill="none" xmlns="http://www.w3.org/2000/svg">
<path d="M21.95 19.65H0.35V2.24999H42.35V114H21.95V19.65ZM109.598 115.8C100.798 115.8 92.998 113.4 86.198 108.6C79.498 103.8 74.248 97.05 70.448 88.35C66.748 79.55 64.898 69.45 64.898 58.05C64.898 46.65 66.748 36.6 70.448 27.9C74.248 19.2 79.498 12.45 86.198 7.64999C92.898 2.84999 100.648 0.449996 109.448 0.449996C118.348 0.449996 126.198 2.84999 132.998 7.64999C139.798 12.45 145.048 19.2 148.748 27.9C152.548 36.6 154.448 46.65 154.448 58.05C154.448 69.45 152.548 79.55 148.748 88.35C145.048 97.05 139.798 103.8 132.998 108.6C126.298 113.4 118.498 115.8 109.598 115.8ZM85.298 58.05C85.298 70.15 87.448 79.7 91.748 86.7C96.0481 93.7 101.998 97.2 109.598 97.2C117.198 97.2 123.148 93.75 127.448 86.85C131.848 79.85 134.048 70.25 134.048 58.05C134.048 45.95 131.848 36.45 127.448 29.55C123.148 22.55 117.148 19.05 109.448 19.05C101.848 19.05 95.898 22.5 91.598 29.4C87.398 36.3 85.298 45.85 85.298 58.05Z" fill="url(#paint0_linear_424_2834)"/>
<defs>
<linearGradient id="paint0_linear_424_2834" x1="79.5" y1="-22" x2="79.5" y2="128" gradientUnits="userSpaceOnUse">
<stop stop-color="#F5F5F5"/>
<stop offset="1" stop-color="#F5F5F5" stop-opacity="0"/>
</linearGradient>
</defs>
</svg>
