<svg width="76" height="114" viewBox="0 0 76 114" fill="none" xmlns="http://www.w3.org/2000/svg">
<path d="M0.900001 98.55L31.2 66.9C37.7 60.1 42.45 54.95 45.45 51.45C48.45 47.85 50.6 44.75 51.9 42.15C53.2 39.45 53.85 36.7 53.85 33.9C53.85 29.3 52.4 25.65 49.5 22.95C46.6 20.15 42.8 18.75 38.1 18.75C33.2 18.75 29 20.15 25.5 22.95C22.1 25.65 19.6 29.65 18 34.95L0.15 29.4C1.35 23.6 3.75 18.55 7.35 14.25C11.05 9.84999 15.6 6.44999 21 4.04999C26.4 1.65 32.1 0.449996 38.1 0.449996C45.2 0.449996 51.5 1.8 57 4.5C62.5 7.09999 66.75 10.8 69.75 15.6C72.85 20.3 74.4 25.7 74.4 31.8C74.4 37.8 72.75 43.65 69.45 49.35C66.25 54.95 61 61.55 53.7 69.15L27.45 96.75H75.9V114H0.900001V98.55Z" fill="url(#paint0_linear_124_3443)"/>
<defs>
<linearGradient id="paint0_linear_124_3443" x1="39" y1="-22" x2="39" y2="128" gradientUnits="userSpaceOnUse">
<stop stop-color="#F5F5F5"/>
<stop offset="1" stop-color="#F5F5F5" stop-opacity="0"/>
</linearGradient>
</defs>
</svg>
