<svg width="81" height="114" viewBox="0 0 81 114" fill="none" xmlns="http://www.w3.org/2000/svg">
<path d="M39.95 113.8C33.85 113.8 28.05 112.65 22.55 110.35C17.15 108.05 12.5 104.8 8.6 100.6C4.8 96.4 2.2 91.55 0.8 86.05L18.65 79.75C20.45 84.75 23.2 88.6 26.9 91.3C30.6 94 34.95 95.35 39.95 95.35C45.95 95.35 50.75 93.65 54.35 90.25C58.05 86.85 59.9 82.25 59.9 76.45C59.9 70.75 58.05 66.25 54.35 62.95C50.75 59.55 45.9 57.85 39.8 57.85C35.6 57.85 31.8 58.65 28.4 60.25L23.75 50.5L52.7 17.5H7.1V0.24999H75.65V16.3L52.7 43.15C61.1 44.45 67.8 48.05 72.8 53.95C77.8 59.75 80.3 67.05 80.3 75.85C80.3 82.95 78.55 89.4 75.05 95.2C71.55 101 66.7 105.55 60.5 108.85C54.4 112.15 47.55 113.8 39.95 113.8Z" fill="url(#paint0_linear_124_3520)"/>
<defs>
<linearGradient id="paint0_linear_124_3520" x1="42" y1="-24" x2="42" y2="126" gradientUnits="userSpaceOnUse">
<stop stop-color="#F5F5F5"/>
<stop offset="1" stop-color="#F5F5F5" stop-opacity="0"/>
</linearGradient>
</defs>
</svg>
