<svg width="79" height="114" viewBox="0 0 79 114" fill="none" xmlns="http://www.w3.org/2000/svg">
<path d="M38.55 113.8C32.65 113.8 27 112.7 21.6 110.5C16.2 108.3 11.6 105.15 7.8 101.05C4 96.95 1.4 92.15 4.24683e-07 86.65L17.7 80.35C19.4 85.25 22.1 89 25.8 91.6C29.5 94.1 33.75 95.35 38.55 95.35C44.25 95.35 48.9 93.55 52.5 89.95C56.1 86.25 57.9 81.5 57.9 75.7C57.9 69.9 56.1 65.2 52.5 61.6C48.9 58 44.25 56.2 38.55 56.2C34.55 56.2 31 57.1 27.9 58.9C24.8 60.6 22.55 63 21.15 66.1L4.5 62.35L13.35 0.24999H74.25V17.5H27.9L24.45 43.15C28.95 40.25 34.8 38.8 42 38.8C49.2 38.8 55.55 40.4 61.05 43.6C66.65 46.7 70.95 51.05 73.95 56.65C76.95 62.25 78.45 68.6 78.45 75.7C78.45 82.9 76.7 89.4 73.2 95.2C69.8 101 65.05 105.55 58.95 108.85C52.85 112.15 46.05 113.8 38.55 113.8Z" fill="url(#paint0_linear_124_3498)"/>
<defs>
<linearGradient id="paint0_linear_124_3498" x1="40.5" y1="-24" x2="40.5" y2="126" gradientUnits="userSpaceOnUse">
<stop stop-color="#F5F5F5"/>
<stop offset="1" stop-color="#F5F5F5" stop-opacity="0"/>
</linearGradient>
</defs>
</svg>
