<svg width="78" height="114" viewBox="0 0 78 114" fill="none" xmlns="http://www.w3.org/2000/svg">
<path d="M39.3 113.8C31.8 113.8 25.1 112.2 19.2 109C13.3 105.8 8.7 101.4 5.4 95.8C2.1 90.1 0.45 83.75 0.45 76.75C0.45 70.85 1.45 65.2 3.45 59.8C5.45 54.3 9.2 47.95 14.7 40.75L45.9 0.24999H70.2L38.25 41.2C40.25 41 41.75 40.9 42.75 40.9C49.45 40.9 55.45 42.45 60.75 45.55C66.15 48.65 70.35 52.9 73.35 58.3C76.45 63.6 78 69.6 78 76.3C78 83.4 76.35 89.8 73.05 95.5C69.75 101.2 65.15 105.7 59.25 109C53.35 112.2 46.7 113.8 39.3 113.8ZM20.85 76.6C20.85 82.1 22.6 86.6 26.1 90.1C29.7 93.6 34.1 95.35 39.3 95.35C44.5 95.35 48.85 93.6 52.35 90.1C55.85 86.6 57.6 82.1 57.6 76.6C57.6 71.1 55.85 66.6 52.35 63.1C48.85 59.6 44.5 57.85 39.3 57.85C34.1 57.85 29.7 59.6 26.1 63.1C22.6 66.6 20.85 71.1 20.85 76.6Z" fill="url(#paint0_linear_124_3501)"/>
<defs>
<linearGradient id="paint0_linear_124_3501" x1="39.5" y1="-24" x2="39.5" y2="126" gradientUnits="userSpaceOnUse">
<stop stop-color="#F5F5F5"/>
<stop offset="1" stop-color="#F5F5F5" stop-opacity="0"/>
</linearGradient>
</defs>
</svg>
