<svg width="81" height="116" viewBox="0 0 81 116" fill="none" xmlns="http://www.w3.org/2000/svg">
<path d="M40.4 115.8C32.5 115.8 25.55 114.3 19.55 111.3C13.55 108.2 8.9 104.1 5.6 99C2.3 93.8 0.65 88.05 0.65 81.75C0.65 75.65 2.05 70.3 4.85 65.7C7.75 61.1 11.9 57.4 17.3 54.6C13.5 52.3 10.5 49.05 8.3 44.85C6.2 40.55 5.15 35.9 5.15 30.9C5.15 25.1 6.65 19.9 9.65 15.3C12.65 10.7 16.8 7.09999 22.1 4.5C27.5 1.8 33.6 0.449996 40.4 0.449996C47.1 0.449996 53.1 1.75 58.4 4.35C63.8 6.95 68 10.6 71 15.3C74 19.9 75.5 25.1 75.5 30.9C75.5 35.8 74.45 40.35 72.35 44.55C70.25 48.75 67.3 52.1 63.5 54.6C68.9 57.5 73 61.25 75.8 65.85C78.7 70.45 80.15 75.8 80.15 81.9C80.15 88.1 78.5 93.8 75.2 99C71.9 104.1 67.2 108.2 61.1 111.3C55.1 114.3 48.2 115.8 40.4 115.8ZM21.2 81.15C21.2 86.35 22.95 90.55 26.45 93.75C29.95 96.95 34.6 98.55 40.4 98.55C46.2 98.55 50.85 96.95 54.35 93.75C57.95 90.55 59.75 86.35 59.75 81.15C59.75 75.95 57.95 71.8 54.35 68.7C50.85 65.5 46.2 63.9 40.4 63.9C34.6 63.9 29.95 65.5 26.45 68.7C22.95 71.8 21.2 75.95 21.2 81.15ZM25.55 32.1C25.55 36.3 26.9 39.8 29.6 42.6C32.4 45.3 36 46.65 40.4 46.65C44.7 46.65 48.2 45.3 50.9 42.6C53.7 39.8 55.1 36.3 55.1 32.1C55.1 27.9 53.7 24.45 50.9 21.75C48.2 19.05 44.7 17.7 40.4 17.7C36 17.7 32.4 19.05 29.6 21.75C26.9 24.45 25.55 27.9 25.55 32.1Z" fill="url(#paint0_linear_400_8114)"/>
<defs>
<linearGradient id="paint0_linear_400_8114" x1="40.5" y1="-22" x2="40.5" y2="128" gradientUnits="userSpaceOnUse">
<stop stop-color="#F5F5F5"/>
<stop offset="1" stop-color="#F5F5F5" stop-opacity="0"/>
</linearGradient>
</defs>
</svg>
