<svg width="78" height="114" viewBox="0 0 78 114" fill="none" xmlns="http://www.w3.org/2000/svg">
<path d="M39.9 73.05C38.1 73.25 36.65 73.35 35.55 73.35C28.85 73.35 22.8 71.8 17.4 68.7C12.1 65.6 7.9 61.35 4.8 55.95C1.8 50.55 0.3 44.5 0.3 37.8C0.3 30.7 1.95 24.3 5.25 18.6C8.55 12.9 13.15 8.45 19.05 5.25C25.05 2.05 31.75 0.449996 39.15 0.449996C46.55 0.449996 53.2 2.05 59.1 5.25C65 8.45 69.6 12.9 72.9 18.6C76.3 24.2 78 30.5 78 37.5C78 43.4 77 49.1 75 54.6C73 60 69.25 66.3 63.75 73.5L32.55 114H8.1L39.9 73.05ZM20.7 37.65C20.7 43.15 22.45 47.65 25.95 51.15C29.45 54.55 33.85 56.25 39.15 56.25C44.35 56.25 48.7 54.55 52.2 51.15C55.7 47.65 57.45 43.15 57.45 37.65C57.45 32.15 55.7 27.65 52.2 24.15C48.7 20.55 44.35 18.75 39.15 18.75C33.95 18.75 29.55 20.55 25.95 24.15C22.45 27.65 20.7 32.15 20.7 37.65Z" fill="url(#paint0_linear_424_2826)"/>
<defs>
<linearGradient id="paint0_linear_424_2826" x1="39.5" y1="-22" x2="39.5" y2="128" gradientUnits="userSpaceOnUse">
<stop stop-color="#F5F5F5"/>
<stop offset="1" stop-color="#F5F5F5" stop-opacity="0"/>
</linearGradient>
</defs>
</svg>
