<svg width="72" height="72" viewBox="0 0 72 72" fill="none" xmlns="http://www.w3.org/2000/svg">
<rect width="72" height="72" rx="10" fill="url(#paint0_linear_976_2640)"/>
<path d="M48.875 20H24.125C21.8513 20 20 21.8495 20 24.125V29.8999H53V24.125C53 21.8495 51.1487 20 48.875 20ZM43.9251 26.6001H42.2752C41.8197 26.6001 41.4503 26.2304 41.4503 25.7752C41.4503 25.3197 41.82 24.9503 42.2752 24.9503H43.9251C44.3806 24.9503 44.75 25.32 44.75 25.7752C44.75 26.2304 44.3803 26.6001 43.9251 26.6001ZM48.875 26.6001H47.2251C46.7697 26.6001 46.4002 26.2304 46.4002 25.7752C46.4002 25.3197 46.77 24.9503 47.2251 24.9503H48.875C49.3305 24.9503 49.6999 25.32 49.6999 25.7752C49.6999 26.2304 49.3305 26.6001 48.875 26.6001Z" fill="white"/>
<path d="M20 48.8719C20 51.1473 21.8513 52.9969 24.125 52.9969H48.875C51.1487 52.9969 53 51.1473 53 48.8719V31.5469H20V48.8719Z" fill="white"/>
<defs>
<linearGradient id="paint0_linear_976_2640" x1="5.14286" y1="-9.85714" x2="36" y2="72" gradientUnits="userSpaceOnUse">
<stop stop-color="#9987FF"/>
<stop offset="1" stop-color="#BA97FF"/>
</linearGradient>
</defs>
</svg>
