<svg width="300" height="100" viewBox="0 0 300 100" fill="none" xmlns="http://www.w3.org/2000/svg">
<rect width="300" height="100" rx="6" fill="#FEFEFE"/>
<path fill-rule="evenodd" clip-rule="evenodd" d="M85.4832 42.3445C87.1734 42.3445 88.4473 42.8511 89.3079 43.8651C89.789 44.4354 90.1836 45.2805 90.4908 46.3997H95.3187C95.2468 44.9424 94.7197 43.4903 93.7376 42.0432C91.9587 39.4663 89.1459 38.1777 85.3001 38.1777C82.4247 38.1777 80.0572 39.1391 78.1959 41.0612C76.0554 43.2685 74.9846 46.4101 74.9846 50.4864C74.9846 54.2574 75.9266 57.2249 77.8082 59.39C79.6897 61.5444 82.2745 62.6215 85.5624 62.6215C88.2206 62.6215 90.4 61.8246 92.1005 60.2296C93.8012 58.6345 94.8578 56.5645 95.2726 54.0197H90.4744C90.1575 55.2233 89.7592 56.1263 89.2784 56.728C88.4096 57.8476 87.1461 58.4078 85.4903 58.4078C83.8747 58.4078 82.5439 57.7557 81.4957 56.4511C80.4473 55.1469 79.9238 53.1856 79.9238 50.5657C79.9238 47.9471 80.4201 45.9222 81.4129 44.4911C82.4068 43.0597 83.7637 42.3445 85.4832 42.3445Z" fill="#2E1CEF"/>
<path fill-rule="evenodd" clip-rule="evenodd" d="M122.941 44.291C121.603 44.291 120.517 44.6453 119.68 45.3527C119.168 45.7749 118.567 46.562 117.878 47.7131V44.7031H113.612V61.9704H118.113V53.717C118.113 52.3335 118.285 51.309 118.629 50.6439C119.246 49.4611 120.453 48.8691 122.252 48.8691C122.387 48.8691 122.565 48.8744 122.785 48.8853C123.003 48.8961 123.534 48.917 123.815 48.9486V44.3228C123.617 44.3125 123.21 44.3043 123.152 44.299C123.096 44.294 123.025 44.291 122.941 44.291Z" fill="#2E1CEF"/>
<path fill-rule="evenodd" clip-rule="evenodd" d="M129.756 48.9533C130.387 48.296 131.276 47.967 132.422 47.967C133.477 47.967 134.361 48.2774 135.074 48.8978C135.785 49.5183 136.182 50.4276 136.264 51.6269H128.565C128.728 50.5025 129.124 49.6115 129.756 48.9533ZM135.187 58.1061C134.551 58.6337 133.724 58.8976 132.706 58.8976C131.747 58.8976 130.925 58.6814 130.243 58.2482C129.12 57.5511 128.525 56.3368 128.456 54.6045H140.901C140.924 53.1137 140.875 51.9712 140.755 51.1778C140.547 49.824 140.093 48.6338 139.393 47.6082C138.617 46.4443 137.632 45.5929 136.44 45.0537C135.248 44.514 133.908 44.2441 132.421 44.2441C129.917 44.2441 127.879 45.0425 126.31 46.6385C124.74 48.2346 123.956 50.5286 123.956 53.5196C123.956 56.7118 124.825 59.0164 126.564 60.4329C128.303 61.8493 130.309 62.5574 132.583 62.5574C135.338 62.5574 137.481 61.7178 139.012 60.0381C139.996 58.9826 140.548 57.9423 140.668 56.9176H136.106C135.841 57.4249 135.534 57.8206 135.187 58.1061Z" fill="#2E1CEF"/>
<path fill-rule="evenodd" clip-rule="evenodd" d="M148.7 53.1483L151.7 43.9601L154.619 53.1483H148.7ZM149.019 38.6211L140.77 61.9719H145.821L147.387 57.1716H155.898L157.422 61.9719H162.658L154.483 38.6211H149.019Z" fill="#2E1CEF"/>
<path fill-rule="evenodd" clip-rule="evenodd" d="M173.432 57.2822C172.773 58.233 171.811 58.7082 170.547 58.7082C169.282 58.7082 168.339 58.2304 167.717 57.2746C167.095 56.3184 166.785 55.0438 166.785 53.4487C166.785 51.9704 167.09 50.7319 167.702 49.7336C168.313 48.7359 169.271 48.2364 170.579 48.2364C171.435 48.2364 172.188 48.5113 172.836 49.0607C173.891 49.9689 174.42 51.479 174.42 53.591C174.42 55.1017 174.09 56.3315 173.432 57.2822ZM174.294 46.8902C173.792 46.0768 173.139 45.4409 172.335 44.9812C171.529 44.5219 170.609 44.2919 169.575 44.2919C167.327 44.2919 165.533 45.1369 164.189 46.8267C162.847 48.5167 162.175 50.8348 162.175 53.7815C162.175 56.3371 162.857 58.4303 164.221 60.0623C165.585 61.6944 167.265 62.5097 169.262 62.5097C170.473 62.5097 171.487 62.2776 172.303 61.813C173.118 61.3485 173.844 60.6041 174.482 59.5793V61.9714H178.824V38.6523H174.294V46.8902Z" fill="#2E1CEF"/>
<path fill-rule="evenodd" clip-rule="evenodd" d="M188.546 57.4395L184.987 44.7031H179.97L186.1 61.9704H190.81L196.981 44.7031H192.184L188.546 57.4395Z" fill="#2E1CEF"/>
<path fill-rule="evenodd" clip-rule="evenodd" d="M215.705 51.5792C213.034 50.9882 211.48 50.571 211.039 50.3278C210.599 50.0954 210.379 49.7205 210.379 49.2029C210.379 48.7914 210.586 48.4325 211 48.1258C211.414 47.82 212.108 47.6665 213.082 47.6665C214.267 47.6665 215.106 47.9726 215.599 48.5856C215.86 48.9234 216.023 49.3825 216.086 49.9635H220.554C220.354 47.8517 219.581 46.3648 218.236 45.5044C216.89 44.6432 215.15 44.2129 213.013 44.2129C210.76 44.2129 209.013 44.7862 207.772 45.932C206.531 47.0778 205.911 48.4483 205.911 50.0429C205.911 51.3948 206.308 52.4297 207.102 53.1481C207.897 53.8766 209.265 54.4836 211.207 54.9699C213.904 55.614 215.461 56.0677 215.881 56.3316C216.299 56.5958 216.509 56.9814 216.509 57.4883C216.509 58.0169 216.249 58.4127 215.73 58.6766C215.21 58.9404 214.508 59.0724 213.626 59.0724C212.124 59.0724 211.096 58.7714 210.539 58.1696C210.224 57.8317 210.019 57.2614 209.924 56.4583H205.393C205.393 58.2331 206.035 59.6928 207.318 60.8387C208.601 61.9844 210.587 62.5577 213.28 62.5577C215.919 62.5577 217.869 62.0163 219.131 60.9337C220.393 59.8511 221.025 58.4546 221.025 56.7436C221.025 55.4443 220.585 54.3623 219.707 53.4959C218.819 52.641 217.485 52.0021 215.705 51.5792Z" fill="#2E1CEF"/>
<path fill-rule="evenodd" clip-rule="evenodd" d="M233.783 57.3625C233.082 58.3012 232.079 58.7702 230.773 58.7702C229.466 58.7702 228.46 58.3012 227.754 57.3625C227.049 56.4238 226.696 55.0905 226.696 53.3607C226.696 51.6306 227.049 50.2999 227.754 49.3665C228.46 48.4332 229.466 47.9663 230.773 47.9663C232.079 47.9663 233.082 48.4332 233.783 49.3665C234.483 50.2999 234.834 51.6306 234.834 53.3607C234.834 55.0905 234.483 56.4238 233.783 57.3625ZM230.788 44.1484C227.851 44.1484 225.661 45.0614 224.219 46.8867C222.777 48.7126 222.056 50.87 222.056 53.3607C222.056 55.893 222.777 58.0587 224.219 59.8578C225.661 61.6569 227.851 62.5567 230.788 62.5567C233.725 62.5567 235.915 61.6569 237.357 59.8578C238.8 58.0587 239.521 55.893 239.521 53.3607C239.521 50.87 238.8 48.7126 237.357 46.8867C235.915 45.0614 233.725 44.1484 230.788 44.1484Z" fill="#2E1CEF"/>
<path fill-rule="evenodd" clip-rule="evenodd" d="M250.572 44.291C249.234 44.291 248.147 44.6453 247.311 45.3527C246.799 45.7749 246.197 46.562 245.508 47.7131V44.7031H241.243V61.9704H245.743V53.717C245.743 52.3335 245.916 51.309 246.26 50.6439C246.877 49.4611 248.084 48.8691 249.882 48.8691C250.017 48.8691 250.196 48.8744 250.415 48.8853C250.634 48.8961 250.886 48.917 251.167 48.9486V44.3228C250.968 44.3125 250.841 44.3043 250.783 44.299C250.726 44.294 250.655 44.291 250.572 44.291Z" fill="#2E1CEF"/>
<path fill-rule="evenodd" clip-rule="evenodd" d="M266.041 53.496C265.153 52.6411 263.819 52.0022 262.039 51.5794C259.368 50.9884 257.814 50.571 257.373 50.328C256.933 50.0956 256.713 49.7206 256.713 49.2029C256.713 48.7915 256.92 48.4325 257.334 48.1258C257.747 47.8202 258.443 47.6665 259.416 47.6665C260.601 47.6665 261.44 47.9728 261.933 48.5857C262.194 48.9235 262.357 49.3825 262.419 49.9636H266.888C266.688 47.8517 265.915 46.3649 264.571 45.5046C263.224 44.6433 261.483 44.2129 259.347 44.2129C257.094 44.2129 255.347 44.7862 254.106 45.9322C252.865 47.078 252.245 48.4484 252.245 50.0431C252.245 51.3949 252.642 52.4297 253.436 53.148C254.23 53.8766 255.599 54.4838 257.541 54.9699C260.238 55.6141 261.796 56.0678 262.215 56.3318C262.633 56.5958 262.843 56.9816 262.843 57.4885C262.843 58.0171 262.583 58.4127 262.064 58.6766C261.544 58.9405 260.842 59.0725 259.96 59.0725C258.458 59.0725 257.43 58.7714 256.873 58.1697C256.557 57.8319 256.353 57.2615 256.258 56.4583H251.727C251.727 58.2331 252.369 59.6929 253.652 60.8387C254.935 61.9845 256.921 62.5579 259.614 62.5579C262.253 62.5579 264.203 62.0162 265.465 60.9338C266.727 59.8513 267.358 58.4546 267.358 56.7437C267.358 55.4444 266.919 54.3624 266.041 53.496Z" fill="#2E1CEF"/>
<path fill-rule="evenodd" clip-rule="evenodd" d="M106.653 55.2708C106.621 56.7814 106.195 57.8218 105.372 58.392C104.549 58.9621 103.65 59.247 102.673 59.247C102.058 59.247 101.534 59.0756 101.105 58.7325C100.675 58.3888 100.46 57.832 100.46 57.061C100.46 56.195 100.812 55.5564 101.515 55.1444C101.932 54.9014 102.616 54.6953 103.57 54.5265L104.587 54.3364C105.095 54.2414 105.495 54.1382 105.787 54.027C106.077 53.9167 106.367 53.7715 106.653 53.5918V55.2708ZM111.403 60.7995C111.257 60.5886 111.168 60.1874 111.137 59.5959C111.116 58.8141 111.105 58.149 111.105 57.5994V49.6791C111.105 47.5986 110.376 46.1834 108.917 45.4335C107.458 44.6836 105.789 44.3086 103.91 44.3086C101.023 44.3086 98.9863 45.0693 97.801 46.5895C97.0552 47.5617 96.6353 48.8024 96.5412 50.3125H100.852C100.958 49.6474 101.17 49.1192 101.488 48.7284C101.932 48.2006 102.69 47.9364 103.761 47.9364C104.713 47.9364 105.437 48.071 105.93 48.3402C106.422 48.6096 106.668 49.098 106.668 49.8053C106.668 50.3864 106.348 50.814 105.705 51.0889C105.347 51.2468 104.752 51.3796 103.92 51.4846L102.389 51.6753C100.651 51.8967 99.335 52.2661 98.4403 52.7839C96.8081 53.7344 95.9927 55.2708 95.9927 57.3936C95.9927 59.0311 96.4998 60.2956 97.5136 61.1878C98.5278 62.0804 99.8135 62.5264 101.369 62.5264C102.588 62.5264 103.682 62.2463 104.65 61.6868C105.459 61.2116 106.174 60.6358 106.794 59.9599C106.826 60.3512 106.867 60.6994 106.919 61.0055C106.972 61.3119 107.065 61.6391 107.201 61.9878H111.877V61.2102C111.681 61.0924 111.514 60.96 111.403 60.7995Z" fill="#2E1CEF"/>
<path fill-rule="evenodd" clip-rule="evenodd" d="M201.252 45.1491C200.464 45.1491 199.726 44.9967 199.034 44.6921C199.017 44.685 199.002 44.6756 198.985 44.668V61.9719H203.516V44.668C203.499 44.6754 203.484 44.685 203.467 44.6921C202.775 44.9967 202.037 45.1491 201.252 45.1491Z" fill="#2E1CEF"/>
<path fill-rule="evenodd" clip-rule="evenodd" d="M203.133 38.5709C202.889 38.3233 202.606 38.1299 202.283 37.9881C201.961 37.8482 201.617 37.7773 201.251 37.7773C200.884 37.7773 200.54 37.8482 200.218 37.9881C199.895 38.1299 199.611 38.3233 199.368 38.5709C199.123 38.8157 198.931 39.1019 198.792 39.4287C198.653 39.7556 198.584 40.1017 198.584 40.4715C198.584 40.8414 198.653 41.1897 198.792 41.5165C198.931 41.8412 199.123 42.1271 199.368 42.3747C199.611 42.6218 199.895 42.8153 200.218 42.955C200.54 43.097 200.884 43.1679 201.251 43.1679C201.617 43.1679 201.961 43.097 202.283 42.955C202.606 42.8153 202.889 42.6218 203.133 42.3747C203.377 42.1271 203.568 41.8412 203.709 41.5165C203.848 41.1897 203.917 40.8414 203.917 40.4715C203.917 40.1017 203.848 39.7556 203.709 39.4287C203.568 39.1019 203.377 38.8157 203.133 38.5709Z" fill="#2E1CEF"/>
<path fill-rule="evenodd" clip-rule="evenodd" d="M67.5102 33V67.8708H33V33H67.5102ZM60.3489 45.616C59.7804 45.8842 59.1485 46.0383 58.4797 46.0383C57.8108 46.0383 57.179 45.8842 56.6104 45.616V61.5161H60.3489V45.616ZM43.8996 45.616C43.3311 45.8842 42.6992 46.0383 42.0305 46.0383C41.3617 46.0383 40.7298 45.8842 40.1613 45.616V59.2282H43.8996V45.616ZM52.1243 45.616C51.5557 45.8842 50.9239 46.0383 50.255 46.0383C49.5863 46.0383 48.9544 45.8842 48.3858 45.616V56.9696H52.1243V45.616ZM42.0305 39.3547C40.7897 39.3547 39.7841 40.3709 39.7841 41.6245C39.7841 42.8781 40.7897 43.8944 42.0305 43.8944C43.2712 43.8944 44.2768 42.8781 44.2768 41.6245C44.2768 40.3709 43.2712 39.3547 42.0305 39.3547ZM50.255 39.3547C49.0144 39.3547 48.0087 40.3709 48.0087 41.6245C48.0087 42.8781 49.0144 43.8944 50.255 43.8944C51.4958 43.8944 52.5015 42.8781 52.5015 41.6245C52.5015 40.3709 51.4958 39.3547 50.255 39.3547ZM58.4797 39.3547C57.239 39.3547 56.2332 40.3709 56.2332 41.6245C56.2332 42.8781 57.239 43.8944 58.4797 43.8944C59.7203 43.8944 60.7261 42.8781 60.7261 41.6245C60.7261 40.3709 59.7203 39.3547 58.4797 39.3547Z" fill="#2E1CEF"/>
</svg>
