<svg width="72" height="72" viewBox="0 0 72 72" fill="none" xmlns="http://www.w3.org/2000/svg">
<rect width="72" height="72" rx="10" fill="url(#paint0_linear_976_2639)"/>
<path d="M52.4024 41.1539C50.2804 41.1539 48.4676 42.6138 47.9372 44.6045H44.798V37.6149H46.257C50.457 37.6149 53.8173 34.2084 53.8173 30.05C53.8173 25.8915 50.4129 22.4851 46.257 22.4851C45.6822 22.4851 45.1517 22.5736 44.6213 22.6619C42.8967 19.3002 39.4483 17 35.4253 17C30.5619 17 26.5389 20.362 25.4336 24.8744C25.1684 24.8303 24.9032 24.7859 24.5935 24.7859C21.0565 24.7859 18.183 27.6612 18.183 31.2003C18.183 34.7395 21.0565 37.6148 24.5935 37.6148H27.2019V44.6045H24.0631C23.5326 42.6138 21.764 41.1539 19.5978 41.1539C17.0776 41.1539 15 43.2331 15 45.7545C15 48.3203 17.0779 50.3551 19.5978 50.3551C21.7199 50.3551 23.5326 48.8953 24.0631 46.9045H28.3515C28.9705 46.9045 29.501 46.3738 29.501 45.7544V37.6146H34.8507V45.7544C32.8612 46.2852 31.4022 48.2319 31.4022 50.3994C31.4022 52.9652 33.4801 55 36 55C38.5202 55 40.5978 52.9208 40.5978 50.3994C40.5978 48.276 39.3931 46.2852 37.4036 45.7544L37.1493 37.6146H42.499V45.7544C42.499 46.3737 43.0295 46.9045 43.6485 46.9045L47.9369 46.9049C48.4674 48.8955 50.236 50.3554 52.4022 50.3554C54.9224 50.3554 57 48.2762 57 45.7548C57.0003 43.189 54.9223 41.1539 52.4024 41.1539ZM19.5977 48.055C18.3158 48.055 17.2987 47.0376 17.2987 45.7546C17.2987 44.4718 18.3154 43.4541 19.5977 43.4541C20.8797 43.4541 21.8968 44.4715 21.8968 45.7546C21.8968 47.0376 20.88 48.055 19.5977 48.055ZM38.2991 50.3555C38.2991 51.6383 37.2823 52.656 36 52.656C34.718 52.656 33.7009 51.6386 33.7009 50.3555C33.7009 49.0728 34.7177 48.055 36 48.055C37.282 48.055 38.2991 49.0728 38.2991 50.3555ZM52.4024 48.055C51.1205 48.055 50.1034 47.0376 50.1034 45.7546C50.1034 44.4718 51.1201 43.4541 52.4024 43.4541C53.6844 43.4541 54.7015 44.4715 54.7015 45.7546C54.7012 47.0376 53.6403 48.055 52.4024 48.055Z" fill="white"/>
<defs>
<linearGradient id="paint0_linear_976_2639" x1="5.14286" y1="-9.85714" x2="36" y2="72" gradientUnits="userSpaceOnUse">
<stop stop-color="#F2B36B"/>
<stop offset="1" stop-color="#F9D687"/>
</linearGradient>
</defs>
</svg>
