<svg width="23" height="23" viewBox="0 0 23 23" fill="none" xmlns="http://www.w3.org/2000/svg">
<rect width="22.193" height="22.193" rx="11.0965" fill="white"/>
<path d="M9.24969 11.1249C9.24969 10.1027 10.0779 9.27372 11.0999 9.27372C12.1219 9.27372 12.9506 10.1027 12.9506 11.1249C12.9506 12.1472 12.1219 12.9761 11.0999 12.9761C10.0779 12.9761 9.24969 12.1472 9.24969 11.1249ZM8.24925 11.1249C8.24925 12.6998 9.52549 13.9764 11.0999 13.9764C12.6743 13.9764 13.9506 12.6998 13.9506 11.1249C13.9506 9.55004 12.6743 8.27343 11.0999 8.27343C9.52549 8.27343 8.24925 9.55004 8.24925 11.1249ZM13.3972 8.16037C13.3972 8.29217 13.4362 8.42102 13.5094 8.53064C13.5825 8.64025 13.6865 8.72571 13.8082 8.77619C13.93 8.82668 14.0639 8.83993 14.1931 8.81427C14.3224 8.78861 14.4411 8.72519 14.5343 8.63203C14.6275 8.53887 14.691 8.42016 14.7168 8.2909C14.7425 8.16165 14.7294 8.02766 14.679 7.90587C14.6286 7.78409 14.5433 7.67998 14.4338 7.60671C14.3242 7.53344 14.1955 7.49431 14.0637 7.49426H14.0634C13.8868 7.49434 13.7175 7.56454 13.5926 7.68943C13.4676 7.81433 13.3974 7.98371 13.3972 8.16037V8.16037ZM8.85708 15.6451C8.31582 15.6204 8.02163 15.5302 7.82613 15.454C7.56694 15.3531 7.382 15.2329 7.18756 15.0387C6.99313 14.8444 6.87277 14.6596 6.77231 14.4004C6.69609 14.2049 6.60594 13.9105 6.58133 13.3691C6.55442 12.7838 6.54904 12.6079 6.54904 11.125C6.54904 9.642 6.55486 9.46666 6.58133 8.88082C6.60598 8.33941 6.69681 8.04562 6.77231 7.84957C6.87321 7.5903 6.99339 7.40532 7.18756 7.21082C7.38174 7.01633 7.56649 6.89594 7.82613 6.79545C8.02154 6.71921 8.31582 6.62903 8.85708 6.60442C9.44226 6.57749 9.61804 6.57212 11.0999 6.57212C12.5818 6.57212 12.7577 6.57794 13.3434 6.60442C13.8847 6.62907 14.1784 6.71992 14.3744 6.79545C14.6336 6.89594 14.8185 7.01659 15.0129 7.21082C15.2074 7.40505 15.3273 7.5903 15.4282 7.84957C15.5044 8.04504 15.5946 8.33941 15.6192 8.88082C15.6461 9.46666 15.6515 9.642 15.6515 11.125C15.6515 12.6079 15.6461 12.7833 15.6192 13.3691C15.5945 13.9105 15.5039 14.2048 15.4282 14.4004C15.3273 14.6596 15.2071 14.8446 15.0129 15.0387C14.8188 15.2327 14.6336 15.3531 14.3744 15.454C14.179 15.5303 13.8847 15.6205 13.3434 15.6451C12.7582 15.672 12.5825 15.6774 11.0999 15.6774C9.61738 15.6774 9.44208 15.672 8.85708 15.6451V15.6451ZM8.81111 5.60538C8.22011 5.6323 7.81627 5.72604 7.46359 5.86331C7.09834 6.00507 6.78914 6.19526 6.48016 6.50384C6.17118 6.81242 5.98154 7.12219 5.83982 7.48755C5.70258 7.84055 5.60887 8.24429 5.58196 8.83546C5.5546 9.42756 5.54834 9.61686 5.54834 11.1249C5.54834 12.633 5.5546 12.8223 5.58196 13.4144C5.60887 14.0056 5.70258 14.4093 5.83982 14.7623C5.98154 15.1274 6.17123 15.4376 6.48016 15.746C6.78909 16.0545 7.09834 16.2444 7.46359 16.3865C7.81694 16.5238 8.22011 16.6176 8.81111 16.6445C9.40335 16.6714 9.59228 16.6781 11.0999 16.6781C12.6075 16.6781 12.7968 16.6718 13.3887 16.6445C13.9798 16.6176 14.3833 16.5238 14.7362 16.3865C15.1013 16.2444 15.4107 16.0546 15.7197 15.746C16.0286 15.4374 16.2179 15.1274 16.36 14.7623C16.4972 14.4093 16.5914 14.0056 16.6179 13.4144C16.6448 12.8218 16.651 12.633 16.651 11.1249C16.651 9.61686 16.6448 9.42756 16.6179 8.83546C16.591 8.24425 16.4972 7.84033 16.36 7.48755C16.2179 7.12242 16.0282 6.8129 15.7197 6.50384C15.4112 6.19477 15.1013 6.00507 14.7367 5.86331C14.3833 5.72604 13.9797 5.63185 13.3892 5.60538C12.7972 5.57846 12.608 5.57175 11.1004 5.57175C9.59273 5.57175 9.40335 5.57801 8.81111 5.60538Z" fill="#070211"/>
</svg>
