<svg width="895" height="336" viewBox="0 0 895 336" fill="none" xmlns="http://www.w3.org/2000/svg">
<path fill-rule="evenodd" clip-rule="evenodd" d="M541.494 0V31.3858H540.228V47.6594H537.391H522.62V51.9119H511.159V59.3116H503.014V218.833L498.658 216.542V186.46V173.338V162.312H490.123V173.338H484.116V138.164H476.177V173.338H464.668V198.684L439.999 185.72L440.04 120.529L428.723 106.671V105.758L391.571 94.5948V81.6693L375.278 73.6759V89.6993L373.114 89.0484L373.079 200.787L356.618 199.664L356.723 188.44L356.737 186.965H349.658V152.85V150.736L344.321 149.019L341.786 142.029L335.583 132.774L335.619 127.939L335.653 123.103L333.659 121.254L328.343 116.32L328.327 115.776L327.1 72.7429L326.291 92.1796L326.462 116.699L320.39 123.102L320.36 123.118L320.48 132.79L314.973 142.044L312.082 148.775L307.88 150.736V150.768L307.831 150.791H307.88V152.85V186.965H298.906L298.878 196.763H255.919V202.139H240.065L238.394 98.9033C238.393 98.8724 238.372 98.8462 238.369 98.8176C238.357 98.7354 238.338 98.6577 238.299 98.5812C238.288 98.5607 238.29 98.5378 238.278 98.5173L217.387 65.0475C217.188 64.7277 216.766 64.5564 216.346 64.601C216.033 64.5542 215.712 64.625 215.474 64.8065L165.485 102.617C165.457 102.638 165.444 102.669 165.419 102.693C165.393 102.717 165.361 102.731 165.339 102.755C165.318 102.78 165.314 102.81 165.297 102.836C165.264 102.884 165.236 102.933 165.214 102.987C165.191 103.047 165.176 103.107 165.169 103.169C165.165 103.198 165.148 103.224 165.148 103.255V214.184H141.328V150.449H131.665H76.4427V246.682L43.4428 259.901L42.0002 294.749C31.741 295.029 23.5115 302.913 23.5115 312.624C23.5115 313.402 23.5827 314.164 23.6849 314.918C7.98838 311.646 0.859139 325.474 0 335.452C0 335.452 9.93293 335.48 26.4277 335.523L24.8955 336L131.55 335.744C230.068 335.91 347.905 335.966 347.905 335.297C347.905 335.273 347.903 335.251 347.902 335.226L496.302 334.871C496.343 335.002 496.378 335.136 496.423 335.265H679.303H712.122H895C893.987 323.435 886.728 313.203 876.199 307.229C876.318 306.336 876.402 305.433 876.402 304.51C876.402 292.798 866.395 283.304 854.052 283.304C843.239 283.304 834.221 290.59 832.151 300.269C831.547 300.214 830.939 300.178 830.321 300.178C825.179 300.178 820.503 302.1 817.007 305.239C815.465 301.237 811.967 298.138 807.615 296.961V188.63H742.728V299.975C738.739 302.877 735.819 307.02 734.599 311.803L735.267 83.4347L669.037 84.2033L668.817 165.978H637.006V168.151L617.435 218.752V220.92H610.836H610.241H608.307L581.116 198.991L581.052 59.3116H574.461V51.9119H563.933V47.6594H543.277V31.3858H542.039V0H541.494Z" fill="url(#paint0_linear_315_5444)"/>
<defs>
<linearGradient id="paint0_linear_315_5444" x1="447.5" y1="0" x2="447.5" y2="336" gradientUnits="userSpaceOnUse">
<stop stop-color="#2C98F0"/>
<stop offset="1" stop-color="#2C98F0" stop-opacity="0.15"/>
</linearGradient>
</defs>
</svg>
