<svg width="23" height="23" viewBox="0 0 23 23" fill="none" xmlns="http://www.w3.org/2000/svg">
<rect x="0.101562" y="0.40625" width="22.193" height="22.193" rx="11.0965" fill="white"/>
<path d="M8.6452 15.9998V10.0048H6.65434V15.9998H8.64541H8.6452ZM7.65018 9.18647C8.34429 9.18647 8.77642 8.72613 8.77642 8.15083C8.76343 7.56242 8.34429 7.11493 7.66338 7.11493C6.98201 7.11493 6.53699 7.56242 6.53699 8.15078C6.53699 8.72608 6.96896 9.18642 7.63714 9.18642H7.65003L7.65018 9.18647ZM9.74717 15.9998H11.7379V12.6523C11.7379 12.4734 11.7509 12.294 11.8035 12.1662C11.9473 11.808 12.2749 11.4373 12.825 11.4373C13.5452 11.4373 13.8335 11.987 13.8335 12.793V15.9998H15.8241V12.5625C15.8241 10.7212 14.8421 9.86429 13.5323 9.86429C12.4584 9.86429 11.9868 10.465 11.7248 10.8742H11.738V10.005H9.74727C9.77326 10.5674 9.74712 16 9.74712 16L9.74717 15.9998Z" fill="#070211"/>
</svg>
