<svg width="72" height="72" viewBox="0 0 72 72" fill="none" xmlns="http://www.w3.org/2000/svg">
<rect width="72" height="72" rx="10" fill="url(#paint0_linear_400_7075)"/>
<path d="M35.7496 38.0001L32.7496 40.25V31.5001H40.2496V40.25L37.2496 38.0001C37.0334 37.8377 36.77 37.7501 36.4996 37.7501C36.2293 37.7501 35.9659 37.8377 35.7496 38.0001ZM39.9371 29.0001L37.7496 19.2751C37.7435 19.1833 37.7435 19.0915 37.7496 19H33.9996V19.1376L32.8998 28.9997L39.9371 29.0001ZM53.525 29.0001L49.5624 21.0751C49.2507 20.4504 48.7705 19.9253 48.1765 19.5587C47.5825 19.1923 46.8981 18.9987 46.1999 19.0001H40.2499L42.4747 29.0001L53.525 29.0001ZM31.5 19.0001H26.7999C26.1018 18.9987 25.4174 19.1924 24.8234 19.5587C24.2293 19.9253 23.7491 20.4504 23.4375 21.0751L19.4749 29.0001H30.387L31.5 19.0001ZM54 31.5001V50.25C54 51.2447 53.6049 52.1984 52.9018 52.9018C52.1984 53.6049 51.2447 54 50.25 54H22.75C21.7553 54 20.8016 53.6049 20.0982 52.9018C19.3951 52.1984 19 51.2447 19 50.25V31.5001H30.25V42.75C30.2508 42.9808 30.3153 43.2071 30.4367 43.4035C30.558 43.5996 30.7313 43.7587 30.9375 43.8625C31.1373 43.9557 31.358 43.9942 31.5776 43.9746C31.7972 43.9548 32.0075 43.8773 32.1875 43.75L36.5 40.5625L40.75 43.75C40.9662 43.9124 41.2296 44 41.5 44C41.6961 44.0034 41.8901 43.9562 42.0625 43.8625C42.2687 43.7587 42.442 43.5996 42.5633 43.4035C42.6847 43.2071 42.7492 42.9808 42.75 42.75V31.5001H54ZM49 47.75C49 47.4185 48.8683 47.1005 48.6339 46.8661C48.3996 46.6317 48.0815 46.5 47.75 46.5H42.75C42.3033 46.5 41.8906 46.7383 41.6674 47.125C41.4442 47.5117 41.4442 47.9883 41.6674 48.375C41.8906 48.7617 42.3033 49 42.75 49H47.75C48.0815 49 48.3996 48.8683 48.6339 48.6339C48.8683 48.3996 49 48.0815 49 47.75Z" fill="white"/>
<defs>
<linearGradient id="paint0_linear_400_7075" x1="5.14286" y1="-9.85714" x2="36" y2="72" gradientUnits="userSpaceOnUse">
<stop stop-color="#FF8D80"/>
<stop offset="1" stop-color="#FCB392"/>
</linearGradient>
</defs>
</svg>
