<svg width="96" height="93" viewBox="0 0 96 93" fill="none" xmlns="http://www.w3.org/2000/svg">
<path d="M35.2 48.0002H22.4544C23.0656 29.7602 28.8256 18.7202 32.32 13.6194C32.842 12.86 33.1956 11.9978 33.3573 11.0906C33.5189 10.1834 33.4848 9.25214 33.2572 8.35918C33.0297 7.46622 32.6139 6.63221 32.0378 5.913C31.4617 5.1938 30.7386 4.60602 29.9168 4.18903L23.0784 0.717029C21.7056 0.00368881 20.119 -0.182163 18.6185 0.194588C17.118 0.571338 15.8074 1.4846 14.9344 2.76183C5.28778 17.0816 0.0917345 33.9345 0 51.2002L0 83.2002C0 85.7463 1.01143 88.1881 2.81178 89.9885C4.61212 91.7888 7.05392 92.8002 9.6 92.8002H35.2C37.7461 92.8002 40.1879 91.7888 41.9882 89.9885C43.7886 88.1881 44.8 85.7463 44.8 83.2002V57.6002C44.8 55.0542 43.7886 52.6124 41.9882 50.812C40.1879 49.0117 37.7461 48.0002 35.2 48.0002ZM38.4 83.2002C38.4 84.0489 38.0629 84.8629 37.4627 85.463C36.8626 86.0631 36.0487 86.4002 35.2 86.4002H9.6C8.75131 86.4002 7.93738 86.0631 7.33726 85.463C6.73714 84.8629 6.4 84.0489 6.4 83.2002V51.2002C6.4931 35.2405 11.2783 19.6606 20.16 6.40023L27.0624 9.99383C22.9312 16.0002 16 29.3186 16 51.2002C16 52.0489 16.3371 52.8629 16.9373 53.463C17.5374 54.0631 18.3513 54.4002 19.2 54.4002H35.2C36.0487 54.4002 36.8626 54.7374 37.4627 55.3375C38.0629 55.9376 38.4 56.7515 38.4 57.6002V83.2002Z" fill="black"/>
<path d="M96 57.6C96 55.0539 94.9886 52.6121 93.1882 50.8118C91.3879 49.0114 88.9461 48 86.4 48H73.6544C74.2656 29.76 80.0256 18.72 83.5328 13.6192C84.0548 12.8598 84.4084 11.9976 84.5701 11.0904C84.7317 10.1832 84.6976 9.25189 84.47 8.35894C84.2425 7.46598 83.8267 6.63196 83.2506 5.91276C82.6745 5.19356 81.9514 4.60577 81.1296 4.18879L74.2784 0.716785C72.9056 0.00344467 71.319 -0.182407 69.8185 0.194344C68.318 0.571094 67.0074 1.48436 66.1344 2.76159C56.4878 17.0814 51.2917 33.9343 51.2 51.2V83.2C51.2 85.7461 52.2114 88.1879 54.0118 89.9882C55.8121 91.7886 58.2539 92.8 60.8 92.8H86.4C88.9461 92.8 91.3879 91.7886 93.1882 89.9882C94.9886 88.1879 96 85.7461 96 83.2V57.6ZM89.6 83.2C89.6 84.0487 89.2629 84.8626 88.6628 85.4627C88.0626 86.0629 87.2487 86.4 86.4 86.4H60.8C59.9513 86.4 59.1374 86.0629 58.5373 85.4627C57.9372 84.8626 57.6 84.0487 57.6 83.2V51.2C57.6931 35.2402 62.4784 19.6604 71.36 6.39999L78.2688 9.98719C74.1312 16 67.2 29.3184 67.2 51.2C67.2 52.0487 67.5372 52.8626 68.1373 53.4627C68.7374 54.0629 69.5513 54.4 70.4 54.4H86.4C87.2487 54.4 88.0626 54.7371 88.6628 55.3372C89.2629 55.9374 89.6 56.7513 89.6 57.6V83.2Z" fill="black"/>
</svg>
