<svg width="23" height="23" viewBox="0 0 23 23" fill="none" xmlns="http://www.w3.org/2000/svg">
<rect x="0.40625" y="0.40625" width="22.193" height="22.193" rx="11.0965" fill="white"/>
<path d="M17.0108 7.98919C16.6444 8.14703 16.2592 8.25694 15.8646 8.31621C16.0491 8.28456 16.3205 7.95227 16.4285 7.81777C16.5926 7.61489 16.7177 7.38328 16.7974 7.13471C16.7974 7.11625 16.8158 7.08988 16.7974 7.07669C16.7881 7.07162 16.7777 7.06896 16.7671 7.06896C16.7565 7.06896 16.7461 7.07162 16.7368 7.07669C16.3084 7.30889 15.8525 7.4861 15.3798 7.60415C15.3633 7.60919 15.3458 7.60964 15.3291 7.60546C15.3124 7.60127 15.2971 7.59262 15.285 7.58041C15.2482 7.53656 15.2086 7.49516 15.1664 7.45646C14.9736 7.28357 14.7549 7.14207 14.5182 7.03714C14.1987 6.90595 13.8536 6.84914 13.509 6.87099C13.1746 6.89212 12.8481 6.98189 12.5499 7.13471C12.2562 7.29583 11.9981 7.51471 11.791 7.77821C11.5733 8.04941 11.416 8.36415 11.3299 8.70125C11.2589 9.02191 11.2509 9.35331 11.3062 9.67704C11.3062 9.73243 11.3062 9.74034 11.2588 9.73243C9.38008 9.45551 7.83865 8.78828 6.57915 7.35625C6.52382 7.29295 6.49484 7.29295 6.45004 7.35625C5.90198 8.18962 6.1681 9.50826 6.85319 10.1597C6.94541 10.2467 7.04027 10.3311 7.14039 10.4102C6.82629 10.3879 6.51985 10.3027 6.23925 10.1597C6.18655 10.1254 6.15756 10.1438 6.15493 10.2071C6.14746 10.2949 6.14746 10.3831 6.15493 10.4709C6.20991 10.8914 6.37549 11.2898 6.63475 11.6253C6.89401 11.9607 7.23763 12.2213 7.63049 12.3802C7.72626 12.4213 7.82605 12.4522 7.92824 12.4725C7.63745 12.5298 7.33922 12.5388 7.04554 12.4989C6.9823 12.4857 6.95858 12.52 6.9823 12.5807C7.36963 13.6356 8.21017 13.9573 8.82675 14.1367C8.91106 14.1499 8.99538 14.1499 9.09024 14.171C9.09024 14.171 9.09024 14.171 9.07443 14.1868C8.89262 14.5191 8.15747 14.7432 7.8202 14.8593C7.2046 15.0806 6.54825 15.1652 5.89671 15.1072C5.79394 15.0914 5.77023 15.094 5.74388 15.1072C5.71753 15.1204 5.74388 15.1494 5.77287 15.1757C5.90461 15.2628 6.03636 15.3393 6.17337 15.4131C6.58127 15.6358 7.0125 15.8127 7.45922 15.9406C9.77269 16.5788 12.376 16.1093 14.1124 14.3819C15.4773 13.0264 15.9569 11.1566 15.9569 9.28409C15.9569 9.21288 16.0438 9.17069 16.0939 9.13376C16.4392 8.86447 16.7436 8.54644 16.9977 8.18962C17.0417 8.13643 17.0642 8.06871 17.0609 7.99974C17.0609 7.96018 17.0609 7.96809 17.0108 7.98919Z" fill="#070211"/>
</svg>
