<svg width="300" height="100" viewBox="0 0 300 100" fill="none" xmlns="http://www.w3.org/2000/svg">
<rect width="300" height="100" rx="6" fill="#FEFEFE"/>
<path d="M101.641 41.518L101.759 32.4478C101.767 31.8711 102.003 31.321 102.416 30.9186C102.829 30.5162 103.385 30.2943 103.962 30.3018C104.539 30.3094 105.089 30.5457 105.491 30.9588C105.893 31.3718 106.115 31.9279 106.108 32.5045L105.989 41.5728C105.971 42.4961 106.144 43.4132 106.497 44.2666C107.185 45.9406 108.493 47.2837 110.149 48.0146C110.992 48.3909 111.904 48.5884 112.827 48.5947C113.738 48.6085 114.642 48.4415 115.488 48.1034C116.333 47.7652 117.103 47.2627 117.753 46.6248C118.388 45.9942 118.903 45.2538 119.274 44.4395C119.659 43.5984 119.861 42.6851 119.867 41.76L119.986 32.6898C119.984 32.4053 120.04 32.1235 120.149 31.8609C120.259 31.5983 120.42 31.3603 120.623 31.161C120.822 30.9572 121.062 30.7972 121.327 30.6914C121.592 30.5855 121.877 30.536 122.162 30.546C122.738 30.5536 123.287 30.7896 123.69 31.2021C124.092 31.6147 124.313 32.1701 124.306 32.7462L124.188 41.8144C124.178 43.3197 123.857 44.8067 123.247 46.1825C122.659 47.5127 121.827 48.7202 120.792 49.7418C119.753 50.7618 118.523 51.5683 117.174 52.1157C115.801 52.6741 114.332 52.9566 112.85 52.9472C111.368 52.9378 109.903 52.6366 108.538 52.0608C107.172 51.485 105.934 50.6459 104.893 49.5915C103.852 48.537 103.029 47.2878 102.47 45.9152C101.895 44.5233 101.613 43.0278 101.643 41.522" fill="black"/>
<path d="M149.05 49.7514C149.442 50.1752 149.656 50.7334 149.647 51.3103C149.65 51.5927 149.594 51.8727 149.485 52.133C149.375 52.3934 149.214 52.6285 149.01 52.8242C148.802 53.0331 148.551 53.1937 148.274 53.2946C148.018 53.3847 147.749 53.4289 147.478 53.4252C147.198 53.4237 146.92 53.3723 146.657 53.2735C146.383 53.1665 146.136 52.9992 145.935 52.784L139.529 46.2098L132.229 46.1145L132.165 51.02C132.167 51.3046 132.111 51.5865 132.002 51.8492C131.893 52.1118 131.731 52.3497 131.528 52.5488C131.33 52.7526 131.092 52.9128 130.829 53.0192C130.566 53.1257 130.283 53.176 129.999 53.1669C129.422 53.1586 128.873 52.9218 128.471 52.5085C128.069 52.0952 127.847 51.5393 127.855 50.9627L128.092 32.8273C128.089 32.545 128.144 32.2653 128.254 32.0051C128.363 31.745 128.525 31.51 128.728 31.3145C128.932 31.1083 129.175 30.9459 129.444 30.8372C129.712 30.7286 130 30.6761 130.29 30.6828L142.247 30.839C143.272 30.8455 144.284 31.0651 145.22 31.4838C146.965 32.2521 148.363 33.6403 149.145 35.3798C149.926 37.1194 150.035 39.0868 149.45 40.9019C149.217 41.614 148.883 42.2895 148.461 42.9081C148.04 43.5219 147.531 44.07 146.949 44.5345C146.368 44.9999 145.724 45.3788 145.034 45.6596L149.05 49.7514ZM132.288 41.7658L142.101 41.894C142.544 41.902 142.984 41.8182 143.394 41.6479C143.793 41.4807 144.159 41.2429 144.474 40.9459C144.796 40.6421 145.052 40.2759 145.227 39.8696C145.402 39.4633 145.493 39.0255 145.493 38.583C145.499 38.1364 145.415 37.6931 145.246 37.2797C145.082 36.8749 144.837 36.5077 144.527 36.2002C144.22 35.8957 143.861 35.6492 143.466 35.4723C143.062 35.291 142.624 35.1954 142.181 35.1915L132.374 35.0634L132.288 41.7658Z" fill="black"/>
<path d="M181.784 52.6894C180.704 51.9615 179.872 50.9214 179.398 49.708C179.058 48.8787 178.89 47.9887 178.906 47.0924L179.083 33.4935C179.081 33.2091 179.136 32.9273 179.246 32.6647C179.355 32.4022 179.517 32.1645 179.72 31.9657C179.918 31.762 180.157 31.6019 180.42 31.4957C180.683 31.3894 180.966 31.3393 181.25 31.3486C181.826 31.357 182.376 31.5933 182.778 32.006C183.18 32.4186 183.401 32.9738 183.395 33.5498L183.217 47.1487C183.215 47.6229 183.348 48.0879 183.6 48.4898C183.802 48.8223 184.094 49.0902 184.444 49.2619C184.783 49.4368 185.158 49.532 185.54 49.5402L196.191 49.6793C196.768 49.6869 197.318 49.9231 197.72 50.3361C198.122 50.7491 198.344 51.305 198.337 51.8815C198.329 52.4581 198.093 53.008 197.68 53.4103C197.267 53.8127 196.711 54.0345 196.134 54.0269L185.483 53.8878C184.808 53.8832 184.139 53.7701 183.5 53.5529C182.889 53.3403 182.308 53.05 181.772 52.6893" fill="black"/>
<path d="M201.387 51.9151L201.624 33.7447C201.631 33.1662 201.868 32.6144 202.283 32.2106C202.697 31.8068 203.255 31.584 203.833 31.5913C204.118 31.5899 204.401 31.6477 204.662 31.7609C204.924 31.8742 205.16 32.0404 205.354 32.2492C205.552 32.4548 205.707 32.6979 205.809 32.9643C205.912 33.2307 205.96 33.5149 205.951 33.8002L205.713 51.9706C205.715 52.2559 205.66 52.5387 205.55 52.8022C205.441 53.0656 205.28 53.3045 205.076 53.5044C204.877 53.7093 204.638 53.8703 204.373 53.977C204.108 54.0838 203.824 54.134 203.539 54.1244C202.961 54.116 202.409 53.8786 202.006 53.4643C201.602 53.0499 201.38 52.4924 201.387 51.9141" fill="black"/>
<path d="M228.568 52.3208L228.74 39.1909L223.025 44.7578C222.828 44.9564 222.593 45.1128 222.333 45.2173C222.074 45.3217 221.796 45.372 221.517 45.3651C221.231 45.3668 220.948 45.3103 220.686 45.1991C220.423 45.0878 220.185 44.9242 219.988 44.7181L214.423 39.004L214.252 52.1338C214.244 52.5541 214.114 52.9629 213.875 53.3092C213.637 53.6556 213.302 53.924 212.912 54.0811C212.522 54.2382 212.095 54.2769 211.683 54.1925C211.271 54.108 210.894 53.9041 210.597 53.6062C210.395 53.408 210.236 53.1696 210.132 52.9064C210.027 52.6432 209.979 52.3611 209.99 52.0782L210.229 33.7797C210.233 33.3662 210.364 32.9638 210.603 32.6265C210.842 32.2792 211.179 32.0104 211.57 31.8541C211.839 31.7457 212.128 31.6963 212.418 31.7091C212.693 31.7048 212.965 31.757 213.219 31.8625C213.472 31.968 213.701 32.1246 213.891 32.3224L221.589 40.2236L229.46 32.5258C229.662 32.3248 229.904 32.1674 230.169 32.0632C230.435 31.959 230.719 31.9102 231.004 31.9199C231.272 31.9271 231.536 31.9841 231.783 32.0881C232.184 32.2465 232.523 32.5319 232.746 32.9007C232.967 33.2535 233.082 33.6628 233.075 34.0791L232.836 52.3775C232.829 52.798 232.698 53.2071 232.46 53.5536C232.222 53.9001 231.887 54.1688 231.496 54.3259C231.106 54.483 230.679 54.5216 230.267 54.437C229.855 54.3523 229.477 54.1481 229.18 53.8499C228.979 53.6514 228.82 53.413 228.716 53.1499C228.612 52.8868 228.564 52.6047 228.574 52.3219" fill="black"/>
<path d="M241.166 47.9082C241.165 48.3826 241.3 48.8474 241.554 49.2483C241.754 49.5819 242.047 49.8503 242.397 50.0214C242.736 50.1963 243.111 50.2915 243.493 50.2997L254.152 50.4389C254.729 50.4465 255.279 50.6827 255.681 51.0957C256.083 51.5087 256.305 52.0646 256.298 52.6411C256.29 53.2177 256.054 53.7676 255.641 54.1699C255.228 54.5723 254.672 54.7941 254.095 54.7866L243.442 54.6474C242.767 54.6429 242.097 54.5295 241.459 54.3115C240.848 54.0991 240.266 53.8088 239.73 53.4478C238.651 52.721 237.819 51.6818 237.347 50.4695C237.007 49.6399 236.839 48.7495 236.854 47.8528L236.973 38.7896C236.98 37.8934 237.171 37.0083 237.534 36.1887C238.036 34.9897 238.892 33.9721 239.987 33.2715C240.533 32.9251 241.121 32.6511 241.738 32.4563C242.382 32.2535 243.055 32.1572 243.73 32.1713L254.389 32.3105C254.965 32.318 255.515 32.5543 255.918 32.9673C256.32 33.3803 256.542 33.9362 256.534 34.5127C256.527 35.0892 256.291 35.6391 255.878 36.0415C255.465 36.4438 254.909 36.6656 254.332 36.6581L243.679 36.519C243.297 36.5172 242.92 36.6026 242.576 36.7686C242.222 36.9301 241.922 37.1905 241.713 37.5184C241.451 37.9134 241.306 38.3743 241.295 38.8481L241.264 41.2409L254.153 41.4092C254.438 41.4077 254.719 41.4633 254.982 41.5727C255.245 41.6821 255.483 41.8431 255.682 42.0462C255.886 42.2446 256.046 42.4834 256.152 42.7472C256.258 43.0111 256.308 43.2942 256.298 43.5784C256.295 43.8638 256.235 44.1457 256.122 44.408C256.01 44.6703 255.846 44.9079 255.642 45.1071C255.438 45.3063 255.196 45.4632 254.931 45.5688C254.666 45.6745 254.382 45.7268 254.097 45.7228L241.198 45.5544L241.166 47.9082Z" fill="black"/>
<path d="M175.349 42.4981C175.339 43.9783 175.033 45.4416 174.45 46.8023C173.867 48.1629 173.019 49.3937 171.954 50.4224C170.342 51.9769 168.304 53.0185 166.1 53.4155C163.895 53.8125 161.623 53.5471 159.569 52.6529C158.241 52.0697 157.033 51.2425 156.01 50.2142C154.968 49.1608 154.148 47.9091 153.599 46.5331C153.05 45.1571 152.783 43.6849 152.814 42.2038C152.823 40.6982 153.143 39.2107 153.754 37.8347C154.494 36.1377 155.641 34.6494 157.094 33.5016C158.546 32.3537 160.259 31.5817 162.081 31.2538C163.903 30.9259 165.778 31.0524 167.539 31.6219C169.301 32.1914 170.895 33.1865 172.18 34.519C173.181 35.5656 173.977 36.7908 174.526 38.131C175.099 39.5143 175.38 41.0011 175.352 42.4981M170.772 42.4243C170.776 41.8293 170.698 41.2365 170.539 40.6631C170.369 40.0401 170.114 39.4439 169.779 38.892C169.418 38.2987 168.967 37.7654 168.441 37.3114C167.863 36.8091 167.205 36.4071 166.494 36.1219C166.34 36.0494 166.178 35.9949 166.012 35.9596C165.803 35.9102 165.586 35.8664 165.36 35.8281C165.134 35.7881 164.909 35.7522 164.693 35.7193C164.518 35.6926 164.343 35.6759 164.166 35.6695C163.56 35.667 162.956 35.7459 162.371 35.904C161.728 36.0716 161.115 36.3364 160.553 36.6893C159.951 37.0649 159.413 37.5323 158.956 38.0746C158.451 38.6739 158.056 39.3582 157.79 40.0956C157.677 40.4337 157.587 40.779 157.52 41.1291C157.443 41.4975 157.4 41.8722 157.392 42.2486C157.379 43.1275 157.546 43.9998 157.884 44.8112C158.211 45.6086 158.684 46.3375 159.28 46.9596C159.879 47.5815 160.592 48.0824 161.38 48.4352C162.195 48.7994 163.076 48.9945 163.968 49.0087C164.861 49.0229 165.747 48.856 166.573 48.518C167.371 48.1858 168.1 47.7091 168.725 47.112C169.35 46.5151 169.853 45.8022 170.205 45.0131C170.569 44.1994 170.76 43.3187 170.765 42.4272" fill="black"/>
<path d="M183.743 56.242L184.864 56.2566C185.331 56.2453 185.797 56.3147 186.24 56.4616C187.019 56.7252 187.691 57.2366 188.152 57.9177C188.56 58.5564 188.779 59.298 188.783 60.0561C188.771 60.958 188.433 61.8251 187.831 62.4969C187.661 62.681 187.476 62.8496 187.276 63.0008C187.043 63.1695 186.793 63.3143 186.53 63.433C186.292 63.5392 186.042 63.6169 185.786 63.6643C185.453 63.7308 185.113 63.7563 184.774 63.7401L183.663 63.7256C183.561 63.7353 183.459 63.7128 183.371 63.6612C183.283 63.6096 183.213 63.5316 183.172 63.4382C183.145 63.3587 183.133 63.2746 183.139 63.1907L183.223 56.7642C183.213 56.6625 183.235 56.5603 183.287 56.4723C183.339 56.3842 183.417 56.3148 183.511 56.274C183.59 56.2465 183.675 56.235 183.758 56.2402M184.12 57.603L184.057 62.3616C184.053 62.4465 184.073 62.5308 184.116 62.6042C184.159 62.6775 184.223 62.7365 184.299 62.7738C184.36 62.8077 184.429 62.8245 184.498 62.8224L184.961 62.8285C185.71 62.8508 186.438 62.5751 186.983 62.0617C187.529 61.5483 187.849 60.8392 187.872 60.0903L187.874 59.9753C187.873 59.379 187.682 58.7985 187.329 58.318C187.162 58.0956 186.966 57.8974 186.745 57.7293C186.254 57.3609 185.656 57.1619 185.041 57.162L184.567 57.1558C184.479 57.1513 184.392 57.1729 184.317 57.2179C184.242 57.2629 184.182 57.3291 184.144 57.4083C184.116 57.471 184.103 57.5392 184.105 57.6079" fill="black"/>
<path d="M194.303 58.5167L194.39 58.5178C194.799 58.5272 195.2 58.6316 195.562 58.8227C195.924 59.0138 196.237 59.2865 196.476 59.6191C196.85 60.1379 197.028 60.7732 196.976 61.411C196.924 62.0488 196.646 62.6472 196.193 63.0988C195.689 63.5832 195.019 63.8577 194.32 63.8664L194.232 63.8652C193.651 63.847 193.092 63.6403 192.64 63.2764C192.326 63.0188 192.074 62.6945 191.902 62.3272C191.73 61.9599 191.642 61.5588 191.645 61.1532C191.654 60.4919 191.908 59.8574 192.357 59.3723C192.51 59.2062 192.684 59.0615 192.875 58.9421C193.303 58.6652 193.801 58.5178 194.311 58.5178M192.547 61.172L192.546 61.209C192.544 61.6664 192.722 62.1062 193.041 62.4338C193.36 62.7614 193.795 62.9505 194.253 62.9604L194.32 62.9613C194.777 62.9618 195.216 62.7836 195.543 62.4648C195.87 62.146 196.06 61.7118 196.071 61.255L196.072 61.219C196.077 60.9781 196.032 60.7387 195.941 60.5157C195.85 60.2927 195.713 60.091 195.54 59.923C195.365 59.7533 195.157 59.6213 194.929 59.5349C194.753 59.4706 194.569 59.4344 194.383 59.4278L194.283 59.4265C193.964 59.4295 193.651 59.5195 193.379 59.6867C193.235 59.7795 193.101 59.8896 192.983 60.0146C192.825 60.1927 192.704 60.401 192.629 60.627C192.568 60.8008 192.538 60.9837 192.539 61.1679" fill="black"/>
<path d="M205.117 56.5217C205.206 56.5243 205.292 56.5528 205.366 56.6036C205.439 56.6544 205.496 56.7255 205.53 56.8082C205.553 56.8884 205.563 56.9721 205.559 57.0556L205.475 63.476C205.484 63.5575 205.472 63.64 205.439 63.7154C205.407 63.7908 205.356 63.8567 205.291 63.9067C205.214 63.9694 205.117 64.0034 205.018 64.0031C204.929 64.0001 204.844 63.9723 204.771 63.9226C204.697 63.873 204.64 63.8037 204.604 63.7227C204.578 63.6395 204.567 63.5523 204.572 63.4652L204.656 57.0418C204.647 56.9605 204.659 56.8782 204.691 56.803C204.723 56.7277 204.773 56.662 204.838 56.6121C204.917 56.5492 205.015 56.5152 205.116 56.5157" fill="black"/>
<path d="M208.769 56.5731L214.229 56.6444C214.333 56.6325 214.438 56.6563 214.527 56.712C214.616 56.7677 214.684 56.8518 214.719 56.9508C214.736 57.0011 214.745 57.054 214.745 57.1072C214.745 57.2064 214.712 57.303 214.651 57.3809C214.589 57.4588 214.503 57.5134 214.406 57.5358C214.343 57.5513 214.277 57.5572 214.212 57.5532L212.385 57.5294C212.289 57.5263 212.195 57.5548 212.117 57.6105C212.039 57.6663 211.982 57.7462 211.954 57.8378C211.941 57.8674 211.933 57.8991 211.931 57.9315L211.857 63.558C211.87 63.6643 211.849 63.7721 211.795 63.8646C211.741 63.9572 211.658 64.0294 211.558 64.0702C211.504 64.0881 211.448 64.0981 211.391 64.1C211.304 64.0978 211.22 64.0706 211.149 64.0218C211.077 63.9729 211.021 63.9045 210.988 63.8247C210.957 63.7352 210.944 63.6406 210.949 63.5461L211.022 57.9626C211.026 57.871 211 57.7806 210.949 57.7048C210.897 57.6291 210.822 57.5719 210.736 57.5418C210.685 57.5172 210.629 57.5051 210.573 57.5067L208.757 57.483C208.652 57.4939 208.547 57.4698 208.457 57.4143C208.367 57.3589 208.298 57.2752 208.261 57.1765C208.245 57.1259 208.237 57.0732 208.237 57.0202C208.237 56.9209 208.27 56.8245 208.332 56.7466C208.393 56.6688 208.479 56.6141 208.576 56.5916C208.639 56.5757 208.705 56.5694 208.77 56.5731" fill="black"/>
<path d="M224.453 56.7737C224.936 56.7902 225.392 56.9967 225.723 57.3483C225.894 57.5296 226.025 57.745 226.106 57.9803C226.131 58.0392 226.143 58.1028 226.141 58.1668C226.14 58.2631 226.108 58.3567 226.051 58.4341C225.993 58.5114 225.913 58.5688 225.821 58.5977C225.775 58.6091 225.727 58.6155 225.679 58.6168C225.611 58.6143 225.545 58.5971 225.484 58.5664C225.424 58.5358 225.37 58.4924 225.328 58.4392C225.267 58.3319 225.212 58.221 225.163 58.107C225.084 57.983 224.975 57.8801 224.847 57.8071C224.719 57.7341 224.576 57.6931 224.428 57.6876C224.281 57.6821 224.135 57.7124 224.002 57.7757C223.869 57.8391 223.753 57.9337 223.664 58.0515C223.558 58.2049 223.498 58.385 223.49 58.5712C223.485 58.7513 223.534 58.9289 223.63 59.081C223.727 59.2331 223.867 59.3528 224.032 59.4244C224.769 59.7107 225.236 59.9015 225.434 59.9968C225.643 60.117 225.834 60.2666 226.001 60.4412C226.158 60.6073 226.286 60.7974 226.383 61.0042C226.538 61.3115 226.618 61.6511 226.617 61.9954C226.613 62.5311 226.424 63.0489 226.081 63.4605C225.96 63.6002 225.824 63.7262 225.676 63.8362C225.281 64.1206 224.805 64.2714 224.318 64.2665C223.99 64.2649 223.666 64.1915 223.369 64.0515C223.072 63.9115 222.809 63.7082 222.599 63.456C222.36 63.1752 222.194 62.8388 222.118 62.4777C222.122 62.4589 222.122 62.4395 222.119 62.4207C222.121 62.3306 222.149 62.2431 222.2 62.1688C222.251 62.0945 222.322 62.0367 222.405 62.0024C222.462 61.9842 222.52 61.9725 222.579 61.9676C222.665 61.9697 222.749 61.9951 222.822 62.0414C222.895 62.0876 222.954 62.1528 222.993 62.23C223.058 62.539 223.221 62.8188 223.457 63.0282C223.686 63.2251 223.975 63.3382 224.277 63.3489L224.361 63.35C224.544 63.3489 224.724 63.3098 224.891 63.2352C225.058 63.1606 225.208 63.0521 225.331 62.9166C225.575 62.6588 225.707 62.3148 225.698 61.96C225.689 61.6051 225.54 61.2682 225.283 61.0228C225.132 60.8766 224.949 60.766 224.75 60.6989C224.094 60.4383 223.691 60.2756 223.541 60.211C223.39 60.1261 223.249 60.0236 223.122 59.9055C222.949 59.7355 222.811 59.5332 222.716 59.3102C222.619 59.0799 222.569 58.8328 222.569 58.5832C222.571 58.3407 222.621 58.1011 222.717 57.8783C222.812 57.6556 222.952 57.4542 223.127 57.2862C223.301 57.1182 223.508 56.9869 223.735 56.9C223.961 56.8132 224.202 56.7726 224.445 56.7806" fill="black"/>
<path d="M230.213 58.994C230.292 58.9949 230.368 59.0162 230.436 59.0559C230.503 59.0955 230.56 59.1521 230.598 59.22C230.619 59.2508 230.647 59.2762 230.679 59.2941C230.712 59.3119 230.748 59.3216 230.785 59.3225C230.904 59.2959 231.02 59.2558 231.131 59.203C231.361 59.1261 231.603 59.0877 231.846 59.0893C232.333 59.096 232.802 59.2735 233.172 59.5907C233.282 59.7081 233.367 59.7673 233.429 59.7681L233.451 59.7683C233.517 59.7692 233.633 59.6904 233.798 59.5318C234.172 59.2614 234.625 59.1209 235.087 59.1316C235.46 59.1383 235.825 59.2464 236.141 59.4443C236.458 59.6422 236.714 59.9225 236.883 60.2552C237.014 60.5 237.089 60.7702 237.104 61.0471L237.066 63.9969C237.064 64.0838 237.036 64.1681 236.985 64.2388C236.935 64.3095 236.864 64.3633 236.782 64.3932C236.731 64.4147 236.675 64.4265 236.619 64.4281C236.532 64.4267 236.448 64.3999 236.376 64.351C236.305 64.302 236.249 64.2331 236.217 64.1528C236.187 64.0686 236.174 63.9795 236.178 63.8903L236.215 61.0305C236.191 60.8292 236.11 60.6388 235.982 60.4815C235.874 60.3362 235.733 60.2182 235.571 60.1369C235.409 60.0557 235.23 60.0133 235.048 60.0132C234.877 60.0121 234.707 60.0482 234.551 60.119C234.395 60.1898 234.255 60.2937 234.143 60.4234C234.06 60.5276 233.991 60.6424 233.939 60.7648C233.91 60.8404 233.889 60.9189 233.878 60.999L233.84 63.8558C233.85 63.956 233.829 64.057 233.78 64.1448C233.73 64.2327 233.655 64.303 233.564 64.3462C233.508 64.368 233.45 64.3817 233.39 64.3869C233.303 64.3866 233.217 64.3603 233.144 64.3112C233.072 64.2622 233.015 64.1928 232.982 64.1116C232.952 64.0274 232.939 63.9383 232.942 63.849L232.98 60.9733C232.959 60.792 232.893 60.619 232.786 60.4707C232.676 60.3202 232.533 60.1973 232.367 60.112C232.201 60.0267 232.017 59.9812 231.831 59.9792C231.635 59.9765 231.442 60.0222 231.268 60.1122C231.095 60.2022 230.946 60.3338 230.836 60.4952C230.734 60.6374 230.668 60.803 230.647 60.9768L230.609 63.8206C230.622 63.9214 230.601 64.0234 230.551 64.1117C230.501 64.1999 230.424 64.2698 230.331 64.3109C230.274 64.3356 230.214 64.3494 230.152 64.3516C230.072 64.3488 229.994 64.325 229.926 64.2825C229.859 64.24 229.803 64.1803 229.766 64.1096C229.726 64.0146 229.709 63.9116 229.716 63.8089L229.772 59.5192C229.762 59.4363 229.774 59.352 229.807 59.2754C229.841 59.1987 229.895 59.1329 229.963 59.0847C230.036 59.025 230.128 58.9941 230.222 58.9981" fill="black"/>
<path d="M241.568 59.1453L242.912 59.1629C243.339 59.1711 243.748 59.3314 244.067 59.615C244.199 59.7349 244.313 59.8735 244.405 60.0265C244.577 60.3065 244.667 60.6286 244.666 60.957L244.625 64.0847C244.622 64.1588 244.601 64.2312 244.564 64.2952C244.526 64.3593 244.474 64.4131 244.41 64.452C244.339 64.4942 244.257 64.5169 244.174 64.5179C244.083 64.5194 243.995 64.493 243.92 64.4423C243.845 64.3915 243.788 64.3189 243.756 64.2344C243.744 64.1814 243.714 64.1339 243.672 64.0993C243.63 64.0648 243.578 64.0451 243.524 64.0433C243.409 64.0712 243.302 64.1215 243.207 64.1912C243.058 64.2684 242.902 64.3311 242.741 64.3782C242.5 64.4492 242.25 64.4873 241.999 64.4915L241.931 64.4906C241.697 64.486 241.466 64.4346 241.252 64.3394C241.038 64.2442 240.845 64.1071 240.685 63.9362C240.563 63.8035 240.46 63.6548 240.379 63.4942C240.263 63.2556 240.202 62.9941 240.201 62.7288L240.201 62.6718C240.208 62.2102 240.398 61.7701 240.727 61.4473C241.057 61.1244 241.501 60.9448 241.963 60.9477L243.445 60.967C243.491 60.9743 243.538 60.9691 243.582 60.9521C243.626 60.9351 243.664 60.9069 243.693 60.8703C243.719 60.8373 243.735 60.7969 243.737 60.7548L243.737 60.7269C243.71 60.5873 243.645 60.4581 243.548 60.3544C243.458 60.2527 243.347 60.1734 243.221 60.123C243.072 60.0642 242.912 60.0389 242.752 60.0489L241.552 60.0332C241.487 60.0294 241.423 60.0117 241.366 59.981C241.308 59.9504 241.258 59.9077 241.218 59.8559C241.163 59.7845 241.132 59.6977 241.128 59.6077L241.129 59.5707C241.13 59.4973 241.149 59.4253 241.185 59.3611C241.221 59.297 241.272 59.2428 241.334 59.2033C241.403 59.1597 241.483 59.1365 241.565 59.1363M241.09 62.6994C241.09 62.8231 241.116 62.9455 241.167 63.0586C241.217 63.1717 241.29 63.2731 241.382 63.3563C241.528 63.488 241.714 63.566 241.911 63.5772L242 63.5784C242.32 63.5753 242.632 63.4835 242.903 63.3132C243.25 63.1 243.512 62.7739 243.646 62.3898C243.679 62.2672 243.703 62.1705 243.718 62.0977L243.718 62.0707C243.717 62.0261 243.702 61.9829 243.675 61.9469C243.649 61.9109 243.612 61.8837 243.57 61.8688C243.551 61.867 243.531 61.8668 243.512 61.868L241.93 61.8473C241.702 61.8531 241.485 61.9491 241.327 62.1144C241.176 62.2772 241.09 62.4895 241.084 62.7114" fill="black"/>
<path d="M248.254 59.2267C248.322 59.2311 248.388 59.2497 248.449 59.2811C248.509 59.3125 248.563 59.3562 248.606 59.4093C248.643 59.432 248.685 59.4449 248.729 59.4469L248.745 59.4471C248.832 59.4325 248.916 59.4039 248.993 59.3624C249.211 59.2835 249.442 59.2445 249.674 59.2472C250.121 59.2561 250.55 59.4217 250.888 59.7151L250.986 59.8164C250.641 60.1609 250.46 60.3336 250.448 60.3334C250.413 60.3561 250.373 60.3685 250.331 60.3689C250.245 60.3569 250.164 60.3212 250.098 60.2658C249.959 60.1966 249.807 60.1604 249.652 60.16C249.394 60.1611 249.146 60.2642 248.963 60.4469C248.781 60.6296 248.677 60.877 248.676 61.1354L248.638 64.0751C248.645 64.1511 248.633 64.2277 248.604 64.2983C248.575 64.3688 248.529 64.4312 248.47 64.4799C248.398 64.5466 248.303 64.5842 248.205 64.5855L248.157 64.5849C248.094 64.5811 248.032 64.5647 247.976 64.5365C247.874 64.4787 247.797 64.387 247.757 64.2776C247.74 64.2072 247.733 64.1347 247.737 64.0624L247.793 59.7457C247.786 59.6733 247.797 59.6003 247.824 59.5328C247.851 59.4653 247.894 59.4052 247.949 59.3577C247.99 59.3179 248.038 59.2867 248.091 59.2661C248.144 59.2455 248.201 59.2359 248.258 59.2378" fill="black"/>
<path d="M254.282 57.1634L254.324 57.1639C254.401 57.1677 254.475 57.1917 254.54 57.2335C254.604 57.2753 254.656 57.3333 254.691 57.4017C254.736 57.4952 254.755 57.5991 254.745 57.7024L254.727 59.0843C254.726 59.1378 254.744 59.1899 254.778 59.231C254.813 59.2721 254.861 59.2993 254.913 59.3078L256.054 59.3227C256.061 59.3228 256.066 59.3228 256.066 59.3318L256.057 60.0318C256.043 60.0971 256.004 60.1546 255.949 60.1923C255.893 60.2201 255.83 60.2321 255.767 60.227L255.168 60.2192C255.079 60.2151 254.991 60.2371 254.915 60.2826C254.839 60.328 254.778 60.3948 254.74 60.4746C254.719 60.5242 254.706 60.5771 254.702 60.6311L254.667 63.3309C254.671 63.4096 254.696 63.4858 254.74 63.5514C254.784 63.6171 254.844 63.6698 254.915 63.7042C254.966 63.7251 255.019 63.7382 255.073 63.7432L255.434 63.7479C255.444 63.7481 255.447 63.7481 255.447 63.7581L255.436 64.6451C255.436 64.6541 255.436 64.657 255.423 64.6569L254.996 64.6513C254.761 64.6627 254.528 64.6088 254.323 64.4955C254.075 64.3542 253.891 64.1235 253.809 63.8507C253.766 63.6895 253.749 63.5226 253.758 63.356L253.833 57.6765C253.824 57.5959 253.835 57.5144 253.867 57.4396C253.898 57.3648 253.948 57.2992 254.011 57.2488C254.083 57.1853 254.176 57.1508 254.272 57.1522" fill="black"/>
<path d="M260.853 29.9889C260.883 30.0208 260.9 30.0634 260.9 30.1076C260.899 30.1517 260.881 30.1939 260.85 30.2249C260.833 30.241 260.814 30.2535 260.792 30.2615C260.771 30.2695 260.748 30.2728 260.725 30.2713L260.195 30.2644L260.179 31.4853C260.18 31.5068 260.176 31.5282 260.167 31.5481C260.159 31.568 260.146 31.5859 260.131 31.6006C260.115 31.6159 260.097 31.6278 260.077 31.6356C260.057 31.6434 260.036 31.647 260.014 31.6461C259.97 31.6458 259.928 31.6283 259.897 31.5974C259.866 31.5665 259.849 31.5247 259.848 31.4809L259.864 30.26L259.336 30.2531C259.315 30.2533 259.294 30.2489 259.274 30.2404C259.254 30.2319 259.236 30.2194 259.222 30.2036C259.199 30.18 259.184 30.1504 259.178 30.1184C259.173 30.0863 259.176 30.0533 259.189 30.0233C259.201 29.9932 259.222 29.9675 259.249 29.9492C259.276 29.9309 259.308 29.9208 259.341 29.9202L260.729 29.9383C260.752 29.9379 260.775 29.9423 260.796 29.951C260.817 29.9597 260.837 29.9726 260.853 29.9889Z" fill="white"/>
<path d="M262.485 31.5186L262.498 30.5307L262.065 30.951C262.034 30.9808 261.993 30.9972 261.95 30.9966C261.907 30.996 261.866 30.9786 261.835 30.948L261.414 30.5165L261.401 31.5044C261.401 31.5259 261.397 31.5472 261.389 31.567C261.38 31.5869 261.368 31.6048 261.352 31.6198C261.337 31.6346 261.319 31.6461 261.299 31.6537C261.279 31.6613 261.257 31.6649 261.236 31.6643C261.194 31.6637 261.154 31.6466 261.124 31.6168C261.109 31.6019 261.097 31.5837 261.089 31.5636C261.081 31.5434 261.077 31.5218 261.078 31.5002L261.096 30.1133C261.096 30.0819 261.106 30.0514 261.124 30.0257C261.138 30.0064 261.155 29.9903 261.176 29.9785C261.196 29.9667 261.219 29.9593 261.242 29.9571C261.266 29.9548 261.29 29.9577 261.312 29.9654C261.334 29.9731 261.355 29.9856 261.372 30.0019L261.954 30.6025L262.551 30.0173C262.567 30.0017 262.587 29.9896 262.608 29.9818C262.63 29.974 262.652 29.9706 262.675 29.9719C262.695 29.9726 262.715 29.9766 262.734 29.9837C262.764 29.9977 262.789 30.0195 262.807 30.0467C262.824 30.0735 262.832 30.1044 262.832 30.136L262.814 31.5229C262.813 31.5658 262.796 31.6068 262.765 31.6368C262.734 31.6668 262.693 31.6833 262.65 31.6827C262.607 31.6822 262.566 31.6646 262.536 31.6338C262.506 31.603 262.489 31.5616 262.49 31.5186" fill="white"/>
<path d="M261.007 33.5553C260.462 33.5482 259.932 33.3796 259.482 33.0709C259.033 32.7622 258.685 32.3272 258.483 31.8209C258.281 31.3146 258.234 30.7598 258.347 30.2266C258.461 29.6935 258.73 29.2059 259.12 28.8255C259.511 28.4451 260.005 28.1891 260.541 28.0897C261.077 27.9904 261.63 28.0522 262.131 28.2673C262.632 28.4825 263.058 28.8413 263.355 29.2985C263.651 29.7556 263.806 30.2905 263.799 30.8355C263.789 31.5664 263.49 32.2636 262.966 32.7736C262.443 33.2837 261.738 33.5649 261.007 33.5553ZM261.076 28.3268C260.587 28.3204 260.108 28.459 259.698 28.7251C259.288 28.9912 258.967 29.3728 258.774 29.8216C258.581 30.2705 258.526 30.7664 258.615 31.2468C258.704 31.7271 258.933 32.1702 259.274 32.5202C259.615 32.8701 260.052 33.1111 260.53 33.2126C261.008 33.3142 261.505 33.2717 261.959 33.0907C262.412 32.9097 262.802 32.5981 263.079 32.1955C263.356 31.7929 263.507 31.3173 263.513 30.8288C263.522 30.1738 263.27 29.5422 262.813 29.073C262.355 28.6038 261.731 28.3353 261.076 28.3268Z" fill="white"/>
<path d="M47.603 25.1309L47.4822 34.3821L57.0132 25.2538L47.603 25.1309Z" fill="#3BA7DE"/>
<path d="M47.4822 34.3821L56.8814 34.5048L57.0022 25.2536L47.4822 34.3821Z" fill="#4BC6EE"/>
<path d="M57.0144 25.2539L66.2928 34.6279L66.4136 25.3767L57.0144 25.2539Z" fill="#1AA74F"/>
<path d="M56.8865 34.5051L66.3047 34.6281L57.0073 25.2539L56.8865 34.5051Z" fill="#0E7646"/>
<path d="M47.4822 34.3809L47.3614 43.6311L56.7716 43.754L47.4822 34.3809Z" fill="#0C78B5"/>
<path d="M56.7657 43.7548L56.8865 34.5036L47.4873 34.3809L56.7657 43.7548Z" fill="#4597D2"/>
<path d="M66.2927 34.6267L66.1719 43.8769L56.7727 43.7541L66.2927 34.6267Z" fill="#56B856"/>
<path d="M56.7657 43.7551L56.8865 34.5039L66.3047 34.6269L56.7657 43.7551Z" fill="#19AA4E"/>
<path d="M75.5811 44.0012L84.8253 44.1219L84.9461 34.8707L75.5811 44.0012Z" fill="#815736"/>
<path d="M84.9522 34.8709L75.696 34.75L75.5752 44.0052L84.9522 34.8709Z" fill="#B86D4A"/>
<path d="M75.8228 25.5L84.9462 34.8699L85.067 25.6207L75.8228 25.5Z" fill="#865036"/>
<path d="M75.696 34.7504L84.9522 34.8712L75.8169 25.4941L75.696 34.7504Z" fill="#9A5B3E"/>
<path d="M75.3394 62.5002L84.5836 62.6209L84.7044 53.3707L75.3394 62.5002Z" fill="#8E2A5D"/>
<path d="M84.7105 53.3709L75.4543 53.25L75.3335 62.5052L84.7105 53.3709Z" fill="#6A1F48"/>
<path d="M75.5811 44L84.8253 44.1207L84.7045 53.3709L75.5811 44Z" fill="#9D6E48"/>
<path d="M84.7105 53.3742L75.4543 53.2534L75.5752 43.9941L84.7105 53.3742Z" fill="#C08B5D"/>
<path d="M75.3335 62.5L75.2127 71.7502L84.5837 62.6208L75.3335 62.5Z" fill="#C43880"/>
<path d="M47.2408 52.8821L47.3616 43.6309L56.7718 43.7538L47.2408 52.8821Z" fill="#ED464A"/>
<path d="M56.7656 43.7536L56.6448 53.0038L47.2456 52.8811L56.7656 43.7536Z" fill="#B92F33"/>
<path d="M66.0511 53.1279L66.1719 43.8767L56.7727 43.7539L66.0511 53.1279Z" fill="#9AC944"/>
<path d="M56.7656 43.7539L56.6448 53.0041L66.063 53.1271L56.7656 43.7539Z" fill="#C8DA48"/>
<path d="M37.5948 71.26L47.005 71.3829L37.7156 62.0098L37.5948 71.26Z" fill="#611620"/>
<path d="M37.7166 62.0098L46.9949 71.3827L47.1158 62.1325L37.7166 62.0098Z" fill="#7A2B37"/>
<path d="M47.0061 71.383L56.4053 71.5058L56.5262 62.2556L47.0061 71.383Z" fill="#E2A125"/>
<path d="M47.1199 62.1328L46.9991 71.383L56.5391 62.2558L47.1199 62.1328Z" fill="#FAD008"/>
<path d="M66.0301 53.1282L75.4542 53.2512L75.5751 44L66.0301 53.1282Z" fill="#BAC960"/>
<path d="M56.5221 62.2508L56.6428 53.0036L47.2437 52.8809L56.5221 62.2508Z" fill="#F48B57"/>
<path d="M47.2407 52.8789L47.1199 62.1331L56.5331 62.2561L47.2407 52.8789Z" fill="#D36E38"/>
<path d="M37.7157 62.005L37.8364 52.7578L47.2446 52.8807L37.7157 62.005Z" fill="#EA3746"/>
<path d="M47.2407 52.8787L47.1199 62.1329L37.7117 62.0101L47.2407 52.8787Z" fill="#8D232B"/>
<path d="M75.3336 62.4969L75.4544 53.2497L66.0552 53.127L75.3336 62.4969Z" fill="#589241"/>
<path d="M66.0481 53.123L65.9272 62.3773L75.3424 62.5002L66.0481 53.123Z" fill="#4F7737"/>
<path d="M56.5242 62.2511L56.645 53.0039L66.0522 53.1268L56.5242 62.2511Z" fill="#7B903A"/>
<path d="M66.049 53.1228L65.9282 62.3771L56.522 62.2542L66.049 53.1228Z" fill="#619E43"/>
<path d="M47.2406 52.8814L37.8375 52.7586L37.9602 43.3594L47.2406 52.8814Z" fill="#CF2831"/>
<path d="M37.7618 43.2458L37.9998 25.0254L47.6798 25.1588L47.455 42.3714C47.5027 45.3881 48.4769 48.3172 50.2457 50.7615C50.9578 51.7616 51.9001 52.5756 52.9931 53.1347C54.0861 53.6938 55.2976 53.9816 56.5253 53.9738C58.1252 53.9947 60.9362 54.1624 64.1254 49.6506C65.4192 47.4987 66.1286 45.0462 66.1835 42.5359L66.4073 25.3964L75.8065 25.5192L75.5686 43.7396C75.5515 46.2527 75.0144 48.7351 73.9912 51.0306C73.0055 53.2494 71.6098 55.2623 69.8774 56.9634C68.1311 58.6666 66.07 60.0137 63.8091 60.9295C61.4666 61.8898 58.9526 62.3613 56.4214 62.3151C53.8976 62.2973 51.4046 61.7603 49.0973 60.7374C44.595 58.7607 41.0314 55.1195 39.1522 50.5756C38.1887 48.2544 37.7166 45.7587 37.7658 43.2459" fill="white"/>
<path d="M56.5242 62.2539L56.4033 71.5051L65.8135 71.628L56.5242 62.2539Z" fill="#EF5E24"/>
<path d="M65.8074 71.6279L65.9283 62.3767L56.5291 62.2539L65.8074 71.6279Z" fill="#F17233"/>
<path d="M75.3335 62.4997L75.2127 71.7509L65.8135 71.6281L75.3335 62.4997Z" fill="#D34627"/>
<path d="M65.8064 71.6281L65.9272 62.377L75.3454 62.5L65.8064 71.6281Z" fill="#EF5D38"/>
</svg>
