<svg width="23" height="23" viewBox="0 0 23 23" fill="none" xmlns="http://www.w3.org/2000/svg">
<rect x="0.804688" y="0.40625" width="22.193" height="22.193" rx="11.0965" fill="white"/>
<path d="M18.0738 8.45026C17.9289 7.90552 17.5002 7.47579 16.9549 7.32851C15.9688 7.06421 12.0124 7.06421 12.0124 7.06421C12.0124 7.06421 8.058 7.06421 7.0699 7.32851C6.52655 7.47377 6.09791 7.90351 5.951 8.45026C5.68738 9.43886 5.68738 11.5028 5.68738 11.5028C5.68738 11.5028 5.68738 13.5668 5.951 14.5553C6.0959 15.1001 6.52454 15.5298 7.0699 15.6771C8.058 15.9414 12.0124 15.9414 12.0124 15.9414C12.0124 15.9414 15.9688 15.9414 16.9549 15.6771C17.4982 15.5318 17.9268 15.1021 18.0738 14.5553C18.3374 13.5668 18.3374 11.5028 18.3374 11.5028C18.3374 11.5028 18.3374 9.43886 18.0738 8.45026Z" fill="#070211"/>
<path d="M10.7486 13.4053L14.0348 11.5028L10.7486 9.60026V13.4053Z" fill="white"/>
</svg>
