<svg width="40" height="91" viewBox="0 0 40 91" fill="none" xmlns="http://www.w3.org/2000/svg">
<path d="M36.625 4V30.3517C28.8791 31.9022 23.1099 38.9504 23.1099 47.2911C23.1099 55.6315 28.8792 62.6795 36.625 64.23V90.582C36.6249 90.582 36.625 90.582 36.625 90.582V64.23C28.8792 62.6795 23.1099 55.6315 23.1099 47.2911C23.1099 38.9504 28.8791 31.9022 36.625 30.3517V4C36.625 4 36.6249 4 36.625 4Z" fill="#CB53F4"/>
<path d="M0.00341415 47.2911C0.00341415 68.4418 15.191 85.7093 34.625 88.3563V65.7927C26.743 63.4538 21.1099 55.9724 21.1099 47.2911C21.1099 38.6095 26.7429 31.128 34.625 28.7891V6.2257C15.191 8.87266 0.00341415 26.14 0.00341415 47.2911Z" fill="#CB53F4"/>
</svg>
