<svg width="60" height="59" viewBox="0 0 60 59" fill="none" xmlns="http://www.w3.org/2000/svg">
<path d="M59.0031 35.3999C55.9784 36.358 52.7575 36.875 49.4155 36.875C31.9012 36.875 17.7031 22.6767 17.7031 5.16249C17.7031 3.40451 17.8462 1.67994 18.1212 -6.44695e-05H37.8252C37.1218 1.57691 36.7307 3.32395 36.7307 5.16249C36.7307 12.1682 42.4099 17.8475 49.4155 17.8475C53.2446 17.8475 56.6772 16.151 59.0031 13.4687V35.3999Z" fill="#5041D6"/>
<path d="M3.11719 59C4.58464 45.7251 15.8392 35.3999 29.5052 35.3999C43.171 35.3999 54.4256 45.7251 55.893 59H36.9059C35.7337 56.0615 32.8618 53.985 29.5052 53.985C26.1484 53.985 23.2767 56.0615 22.1043 59H3.11719Z" fill="#CB53F4"/>
</svg>
